<svg width="130" height="40" viewBox="0 0 130 40" fill="none" xmlns="http://www.w3.org/2000/svg">
<g clip-path="url(#clip0_152_450)">
<path d="M77.2539 24.7539V24.4668C77.2539 23.3822 77.4089 22.3841 77.7188 21.4727C78.0286 20.5521 78.4844 19.7546 79.0859 19.0801C79.6875 18.4056 80.4258 17.8815 81.3008 17.5078C82.1758 17.125 83.1784 16.9336 84.3086 16.9336C85.457 16.9336 86.4688 17.125 87.3438 17.5078C88.2279 17.8815 88.9707 18.4056 89.5723 19.0801C90.1738 19.7546 90.6296 20.5521 90.9395 21.4727C91.2493 22.3841 91.4043 23.3822 91.4043 24.4668V24.7539C91.4043 25.8294 91.2493 26.8275 90.9395 27.748C90.6296 28.6595 90.1738 29.457 89.5723 30.1406C88.9707 30.8151 88.2324 31.3392 87.3574 31.7129C86.4824 32.0866 85.4753 32.2734 84.3359 32.2734C83.2057 32.2734 82.1986 32.0866 81.3145 31.7129C80.4303 31.3392 79.6875 30.8151 79.0859 30.1406C78.4844 29.457 78.0286 28.6595 77.7188 27.748C77.4089 26.8275 77.2539 25.8294 77.2539 24.7539ZM81.5332 24.4668V24.7539C81.5332 25.3372 81.5788 25.8841 81.6699 26.3945C81.7702 26.9049 81.9297 27.3516 82.1484 27.7344C82.3672 28.1172 82.6543 28.418 83.0098 28.6367C83.3743 28.8464 83.8164 28.9512 84.3359 28.9512C84.8555 28.9512 85.293 28.8464 85.6484 28.6367C86.0039 28.418 86.291 28.1172 86.5098 27.7344C86.7285 27.3516 86.8835 26.9049 86.9746 26.3945C87.0749 25.8841 87.125 25.3372 87.125 24.7539V24.4668C87.125 23.8926 87.0749 23.3548 86.9746 22.8535C86.8835 22.3431 86.7285 21.8919 86.5098 21.5C86.291 21.1081 85.9993 20.8027 85.6348 20.584C85.2793 20.3652 84.8372 20.2559 84.3086 20.2559C83.7982 20.2559 83.3652 20.3652 83.0098 20.584C82.6543 20.8027 82.3672 21.1081 82.1484 21.5C81.9297 21.8919 81.7702 22.3431 81.6699 22.8535C81.5788 23.3548 81.5332 23.8926 81.5332 24.4668Z" fill="#1E1E1E"/>
<path d="M72.123 17.207H76.0059V31.4668C76.0059 32.8249 75.696 33.9779 75.0762 34.9258C74.4655 35.8737 73.6133 36.5938 72.5195 37.0859C71.4258 37.5781 70.1452 37.8242 68.6777 37.8242C68.0397 37.8242 67.3743 37.7376 66.6816 37.5645C65.9889 37.4004 65.3372 37.1497 64.7266 36.8125C64.1159 36.4844 63.6055 36.0651 63.1953 35.5547L65.0137 33.0391C65.4329 33.513 65.9342 33.8958 66.5176 34.1875C67.1009 34.4883 67.7663 34.6387 68.5137 34.6387C69.1973 34.6387 69.776 34.5156 70.25 34.2695C70.724 34.0234 71.084 33.6634 71.3301 33.1895C71.5853 32.7155 71.7129 32.1413 71.7129 31.4668V20.666L72.123 17.207ZM62.2383 24.7812V24.4941C62.2383 23.373 62.375 22.3522 62.6484 21.4316C62.9219 20.502 63.3184 19.7044 63.8379 19.0391C64.3665 18.3646 65 17.8451 65.7383 17.4805C66.4857 17.1159 67.3242 16.9336 68.2539 16.9336C69.2565 16.9336 70.0859 17.125 70.7422 17.5078C71.3984 17.8815 71.9316 18.4102 72.3418 19.0938C72.752 19.7682 73.0755 20.5658 73.3125 21.4863C73.5495 22.3978 73.7409 23.3867 73.8867 24.4531V24.9453C73.7409 25.9661 73.5312 26.9186 73.2578 27.8027C72.9844 28.6868 72.6289 29.4661 72.1914 30.1406C71.7539 30.806 71.207 31.3301 70.5508 31.7129C69.9036 32.0866 69.1289 32.2734 68.2266 32.2734C67.306 32.2734 66.4766 32.0866 65.7383 31.7129C65 31.3392 64.3665 30.8151 63.8379 30.1406C63.3184 29.4661 62.9219 28.6732 62.6484 27.7617C62.375 26.8503 62.2383 25.8568 62.2383 24.7812ZM66.5039 24.4941V24.7812C66.5039 25.3646 66.5586 25.9069 66.668 26.4082C66.7865 26.9095 66.9596 27.3516 67.1875 27.7344C67.4245 28.1172 67.7161 28.418 68.0625 28.6367C68.418 28.8464 68.8327 28.9512 69.3066 28.9512C69.9993 28.9512 70.5599 28.8053 70.9883 28.5137C71.4258 28.2129 71.7448 27.7982 71.9453 27.2695C72.1549 26.7409 72.2643 26.1257 72.2734 25.4238V23.9883C72.2734 23.4049 72.2142 22.8809 72.0957 22.416C71.9772 21.9512 71.7995 21.5592 71.5625 21.2402C71.3346 20.9212 71.0339 20.6797 70.6602 20.5156C70.2956 20.3424 69.8535 20.2559 69.334 20.2559C68.8691 20.2559 68.459 20.3652 68.1035 20.584C67.748 20.7936 67.4518 21.0898 67.2148 21.4727C66.9779 21.8555 66.8001 22.3066 66.6816 22.8262C66.5632 23.3366 66.5039 23.8926 66.5039 24.4941Z" fill="#1E1E1E"/>
<path d="M47.6875 27.8848L50.5859 17.207H53.2793L52.3633 21.9648L49.4648 32H47.2637L47.6875 27.8848ZM46.3613 17.207L48.3027 27.8438L48.5078 32H45.8828L42.2461 17.207H46.3613ZM55.9043 27.6387L57.832 17.207H61.9473L58.3379 32H55.7129L55.9043 27.6387ZM53.6074 17.207L56.5332 27.8301L56.957 32H54.7285L51.8574 21.9785L50.9824 17.207H53.6074Z" fill="#1E1E1E"/>
<path d="M27.9121 24.7539V24.4668C27.9121 23.3822 28.0671 22.3841 28.377 21.4727C28.6868 20.5521 29.1426 19.7546 29.7441 19.0801C30.3457 18.4056 31.084 17.8815 31.959 17.5078C32.834 17.125 33.8366 16.9336 34.9668 16.9336C36.1152 16.9336 37.127 17.125 38.002 17.5078C38.8861 17.8815 39.6289 18.4056 40.2305 19.0801C40.832 19.7546 41.2878 20.5521 41.5977 21.4727C41.9076 22.3841 42.0625 23.3822 42.0625 24.4668V24.7539C42.0625 25.8294 41.9076 26.8275 41.5977 27.748C41.2878 28.6595 40.832 29.457 40.2305 30.1406C39.6289 30.8151 38.8906 31.3392 38.0156 31.7129C37.1406 32.0866 36.1335 32.2734 34.9941 32.2734C33.8639 32.2734 32.8568 32.0866 31.9727 31.7129C31.0885 31.3392 30.3457 30.8151 29.7441 30.1406C29.1426 29.457 28.6868 28.6595 28.377 27.748C28.0671 26.8275 27.9121 25.8294 27.9121 24.7539ZM32.1914 24.4668V24.7539C32.1914 25.3372 32.237 25.8841 32.3281 26.3945C32.4284 26.9049 32.5879 27.3516 32.8066 27.7344C33.0254 28.1172 33.3125 28.418 33.668 28.6367C34.0326 28.8464 34.4746 28.9512 34.9941 28.9512C35.5137 28.9512 35.9512 28.8464 36.3066 28.6367C36.6621 28.418 36.9492 28.1172 37.168 27.7344C37.3867 27.3516 37.5417 26.9049 37.6328 26.3945C37.7331 25.8841 37.7832 25.3372 37.7832 24.7539V24.4668C37.7832 23.8926 37.7331 23.3548 37.6328 22.8535C37.5417 22.3431 37.3867 21.8919 37.168 21.5C36.9492 21.1081 36.6576 20.8027 36.293 20.584C35.9375 20.3652 35.4954 20.2559 34.9668 20.2559C34.4564 20.2559 34.0234 20.3652 33.668 20.584C33.3125 20.8027 33.0254 21.1081 32.8066 21.5C32.5879 21.8919 32.4284 22.3431 32.3281 22.8535C32.237 23.3548 32.1914 23.8926 32.1914 24.4668Z" fill="#1E1E1E"/>
<path d="M23.8066 20.6523V32H19.541V17.207H23.5469L23.8066 20.6523ZM28.2227 17.0977L28.1543 21.0762C27.972 21.0488 27.735 21.026 27.4434 21.0078C27.1517 20.9805 26.901 20.9668 26.6914 20.9668C26.1445 20.9668 25.6706 21.0352 25.2695 21.1719C24.8776 21.2995 24.5495 21.4909 24.2852 21.7461C24.0299 22.0013 23.8385 22.3203 23.7109 22.7031C23.5833 23.0768 23.5195 23.5098 23.5195 24.002L22.7129 23.6055C22.7129 22.6302 22.8086 21.737 23 20.9258C23.1914 20.1146 23.4694 19.4128 23.834 18.8203C24.1986 18.2188 24.6452 17.7539 25.1738 17.4258C25.7025 17.0977 26.304 16.9336 26.9785 16.9336C27.1973 16.9336 27.4206 16.9473 27.6484 16.9746C27.8763 17.002 28.0677 17.043 28.2227 17.0977Z" fill="#1E1E1E"/>
<path d="M17.6777 21.4863V29.5117C17.3496 29.8854 16.8483 30.2865 16.1738 30.7148C15.5085 31.1432 14.6562 31.5124 13.6172 31.8223C12.5781 32.123 11.3385 32.2734 9.89844 32.2734C8.59505 32.2734 7.41016 32.0638 6.34375 31.6445C5.27734 31.2161 4.36133 30.5918 3.5957 29.7715C2.83008 28.9421 2.23763 27.9303 1.81836 26.7363C1.4082 25.5423 1.20312 24.1751 1.20312 22.6348V21.459C1.20312 19.9186 1.4082 18.5514 1.81836 17.3574C2.22852 16.1634 2.80729 15.1562 3.55469 14.3359C4.30208 13.5065 5.19076 12.8776 6.2207 12.4492C7.25065 12.0208 8.38997 11.8066 9.63867 11.8066C11.416 11.8066 12.8698 12.0938 14 12.668C15.1302 13.2331 15.987 14.0169 16.5703 15.0195C17.1628 16.0221 17.5273 17.1751 17.6641 18.4785H13.3711C13.2799 17.8132 13.0977 17.2389 12.8242 16.7559C12.5599 16.2728 12.1816 15.9036 11.6895 15.6484C11.1973 15.3841 10.5592 15.252 9.77539 15.252C9.14648 15.252 8.57682 15.3841 8.06641 15.6484C7.5651 15.9036 7.14128 16.291 6.79492 16.8105C6.44857 17.3301 6.18424 17.9772 6.00195 18.752C5.81966 19.5176 5.72852 20.4108 5.72852 21.4316V22.6348C5.72852 23.6556 5.81966 24.5534 6.00195 25.3281C6.19336 26.1029 6.47135 26.75 6.83594 27.2695C7.20052 27.7799 7.66081 28.1673 8.2168 28.4316C8.7819 28.696 9.43815 28.8281 10.1855 28.8281C10.7689 28.8281 11.2611 28.7826 11.6621 28.6914C12.0632 28.5911 12.3913 28.4681 12.6465 28.3223C12.9017 28.1673 13.0931 28.026 13.2207 27.8984V24.5898H9.67969V21.4863H17.6777Z" fill="#1E1E1E"/>
<path d="M108.173 5.33331C108.173 2.38777 105.785 -6.86646e-05 102.839 -6.86646e-05C99.8937 -6.86646e-05 97.5059 2.38777 97.5059 5.33331C97.5059 8.27886 99.8937 10.6667 102.839 10.6667C105.785 10.6667 108.173 8.27886 108.173 5.33331Z" fill="#1E1E1E"/>
<path d="M118.839 16.0002C118.839 13.0547 116.451 10.6668 113.505 10.6668C110.56 10.6668 108.172 13.0547 108.172 16.0002C108.172 18.9458 110.56 21.3336 113.505 21.3336C116.451 21.3336 118.839 18.9458 118.839 16.0002Z" fill="#1E1E1E"/>
<path d="M118.839 5.33331C118.839 2.38777 116.451 -6.86646e-05 113.505 -6.86646e-05C110.56 -6.86646e-05 108.172 2.38777 108.172 5.33331C108.172 8.27886 110.56 10.6667 113.505 10.6667C116.451 10.6667 118.839 8.27886 118.839 5.33331Z" fill="#1E1E1E"/>
<path d="M129.511 26.6666C129.511 23.721 127.123 21.3332 124.177 21.3332C121.232 21.3332 118.844 23.721 118.844 26.6666C118.844 29.6121 121.232 32 124.177 32C127.123 32 129.511 29.6121 129.511 26.6666Z" fill="#1E1E1E"/>
<path d="M129.511 16C129.511 13.0544 127.123 10.6666 124.177 10.6666C121.232 10.6666 118.844 13.0544 118.844 16C118.844 18.9455 121.232 21.3334 124.177 21.3334C127.123 21.3334 129.511 18.9455 129.511 16Z" fill="#1E1E1E"/>
<path d="M129.511 5.33331C129.511 2.38776 127.123 -6.86646e-05 124.177 -6.86646e-05C121.232 -6.86646e-05 118.844 2.38776 118.844 5.33331C118.844 8.27885 121.232 10.6667 124.177 10.6667C127.123 10.6667 129.511 8.27885 129.511 5.33331Z" fill="#1E1E1E"/>
</g>
<defs>
<clipPath id="clip0_152_450">
<rect width="130" height="40" fill="white"/>
</clipPath>
</defs>
</svg>
