<svg width="95" height="95" viewBox="0 0 95 95" fill="none" xmlns="http://www.w3.org/2000/svg">
<g clip-path="url(#clip0_135_956)">
<g clip-path="url(#clip1_135_956)">
<path fill-rule="evenodd" clip-rule="evenodd" d="M31.6663 15.9362C31.6111 24.6245 24.5579 31.6524 15.8599 31.6666C24.5579 31.6809 31.6111 38.7088 31.6663 47.3971C31.7216 38.7088 38.7748 31.6809 47.4728 31.6666C38.7748 31.6524 31.7216 24.6245 31.6663 15.9362ZM47.5259 31.6666C56.2582 31.6523 63.3327 24.569 63.3327 15.8333C63.3327 7.08883 56.2439 0 47.4994 0C38.7892 0 31.7217 7.03331 31.6663 15.7305C31.611 7.03331 24.5435 0 15.8333 0C7.08883 0 0 7.08883 0 15.8333C0 24.569 7.07449 31.6523 15.8068 31.6666C7.07449 31.681 0 38.7643 0 47.5C0 56.2445 7.08883 63.3333 15.8333 63.3333C24.5435 63.3333 31.611 56.3 31.6663 47.6028C31.7217 56.3 38.7892 63.3333 47.4994 63.3333C56.2439 63.3333 63.3327 56.2445 63.3327 47.5C63.3327 38.7643 56.2582 31.681 47.5259 31.6666ZM63.334 15.8333C63.334 24.569 70.4085 31.6523 79.1408 31.6666C70.4085 31.6809 63.334 38.7643 63.334 47.5C63.334 56.2445 70.4228 63.3333 79.1673 63.3333C87.9118 63.3333 95.0007 56.2445 95.0007 47.5C95.0007 38.7643 87.9262 31.6809 79.1939 31.6666C87.9262 31.6523 95.0007 24.569 95.0007 15.8333C95.0007 7.08883 87.9118 0 79.1673 0C70.4228 0 63.334 7.08883 63.334 15.8333ZM15.8333 95C24.5435 95 31.611 87.9667 31.6663 79.2696C31.7217 87.9667 38.7892 95 47.4994 95C56.2439 95 63.3327 87.9112 63.3327 79.1667C63.3327 70.4222 56.2439 63.3333 47.4994 63.3333C38.7892 63.3333 31.7217 70.3667 31.6663 79.0639C31.611 70.3667 24.5435 63.3333 15.8333 63.3333C7.08883 63.3333 0 70.4222 0 79.1667C0 87.9112 7.08883 95 15.8333 95ZM79.1673 95C87.9118 95 95.0007 87.9112 95.0007 79.1667C95.0007 70.4222 87.9118 63.3333 79.1673 63.3333C70.4228 63.3333 63.334 70.4222 63.334 79.1667C63.334 87.9112 70.4228 95 79.1673 95Z" fill="#FEBF2D"/>
</g>
</g>
<defs>
<clipPath id="clip0_135_956">
<rect width="95" height="95" fill="white"/>
</clipPath>
<clipPath id="clip1_135_956">
<rect width="95" height="95" fill="white"/>
</clipPath>
</defs>
</svg>
